<?xml version="1.0" encoding="UTF-8"?>
<svg id="Layer_1" xmlns="http://www.w3.org/2000/svg" version="1.1" viewBox="0 0 595.28 841.89">
  <!-- Generator: Adobe Illustrator 29.4.0, SVG Export Plug-In . SVG Version: 2.1.0 Build 152)  -->
  <defs>
    <style>
      .st0 {
        fill: #231f20;
      }
    </style>
  </defs>
  <g>
    <path class="st0" d="M248.46,418.39l.47-5.82,1.57-15.6h10.41l-8.01,38.14v12.34h-9.78v-12.29l-8.01-38.19h10.62l1.67,15.6.47,5.82h.6,0Z"/>
    <path class="st0" d="M284.73,396.97v41.25c0,3.2-1,5.62-3,7.25-2,1.64-4.82,2.45-8.45,2.45-7.44,0-11.17-3.22-11.17-9.65v-41.3h9.78v41.2c0,1.29.5,1.92,1.49,1.9,1.03,0,1.55-.63,1.57-1.9v-41.2h9.78,0Z"/>
    <path class="st0" d="M305.65,421.7c3.43.92,5.14,3.27,5.14,7.04v9.99c0,2.71-.87,4.84-2.62,6.39s-4.22,2.32-7.42,2.32h-12.94v-50.48h13.36c2.82,0,5.07.67,6.74,2s2.52,3.3,2.52,5.91v9.55c0,3.74-1.59,6.06-4.77,6.97v.31h-.01ZM298.97,404.72h-1.38v13.57h1.44c1.18,0,1.77-.66,1.77-1.98v-9.58c0-1.34-.61-2.01-1.83-2.01ZM298.87,425.07h-1.28v14.64h1.28c1.43,0,2.14-.8,2.14-2.4v-9.89c0-1.57-.71-2.35-2.14-2.35Z"/>
    <path class="st0" d="M326.26,447.45l-.52-10.04h-4.02l-.52,10.04h-10.1l4.85-50.48h15.76l4.64,50.48h-10.1.01ZM322.16,429.55h3.21l-.91-17.27-.44-6.39h-.57l-.37,6.39-.91,17.27h-.01Z"/>
    <path class="st0" d="M361.17,447.45h-10.07l-1.54-17.64h-2.14v17.64h-9.78v-50.48h12.52c3.43,0,6,.85,7.72,2.56,1.72,1.7,2.58,4.12,2.58,7.25v11.87c0,2.78-.73,5.03-2.19,6.73l2.9,22.07h0ZM347.42,422.33h.91c1.46,0,2.19-1.03,2.19-3.08v-11.22c0-1.9-.73-2.84-2.19-2.84h-.91v17.14h0Z"/>
    <path class="st0" d="M363.28,396.97h9.78v50.48h-9.78v-50.48h0Z"/>
  </g>
  <g>
    <path class="st0" d="M381.96,411.16l3.58-1.18.23.12c.49,3,2.05,3.46,6.87,3.46,3.03,0,6.21-.26,9.3-.72l.26.2.4,4.33-.17.26c-3.38.38-6.87.46-10.08.46-8.63,0-10.19-3.49-10.54-6.73l.14-.2h0ZM385.33,397.16c1.73.17,3.44.26,5.14.26,2.77,0,5.89-.29,8.92-.72l.2.17.12,4.07-.23.2c-2.74.49-5.8.72-9.04.72-1.62,0-3.49-.09-5.23-.26l-.23-.2.14-4.1.2-.14h0ZM399.48,395.16l1.59-.92h.29c.98.98,1.91,2.08,2.66,3.29l-.06.29-1.67.98-.29-.03c-.81-1.24-1.5-2.28-2.57-3.35l.06-.26h-.01ZM402.34,393.6l1.56-.95h.29c.98,1.01,1.82,1.99,2.57,3.23l-.03.29-1.62.95-.29-.03c-.78-1.27-1.47-2.17-2.54-3.26l.06-.23Z"/>
    <path class="st0" d="M405.66,411.16l3.58-1.18.23.12c.49,3,2.05,3.46,6.87,3.46,3.03,0,6.21-.26,9.3-.72l.26.2.4,4.33-.17.26c-3.38.38-6.87.46-10.08.46-8.63,0-10.19-3.49-10.54-6.73l.14-.2h0ZM409.03,397.16c1.73.17,3.44.26,5.14.26,2.77,0,5.89-.29,8.92-.72l.2.17.12,4.07-.23.2c-2.74.49-5.8.72-9.04.72-1.62,0-3.49-.09-5.23-.26l-.23-.2.14-4.1.2-.14h0ZM423.18,395.16l1.59-.92h.29c.98.98,1.91,2.08,2.66,3.29l-.06.29-1.67.98-.29-.03c-.81-1.24-1.5-2.28-2.57-3.35l.06-.26h-.01ZM426.04,393.6l1.56-.95h.29c.98,1.01,1.82,1.99,2.57,3.23l-.03.29-1.62.95-.29-.03c-.78-1.27-1.47-2.17-2.54-3.26l.06-.23Z"/>
    <path class="st0" d="M429.73,406.6l-1.1-3.78.14-.26c1.99-.46,4.16-1.15,5.95-1.65,1.7-.46,2.89-.81,3.93-.81,3.7,0,6.09,2.69,6.09,8.11,0,6.96-3.7,9.96-9.76,11.49-.26,0-.35-.03-.49-.23l-2.74-3.29c5.77-1.21,8.26-3.46,8.26-7.33,0-3.26-.61-4.42-1.82-4.42-.63,0-1.67.29-2.94.72-1.53.46-3.38,1.04-5.25,1.56l-.26-.12h-.01ZM432.48,396.61l1.07-3.61.26-.09c2.71.75,5.37,1.18,8.66,1.39l.17.2-.66,3.96-.23.14c-3.12-.4-6.09-.9-9.15-1.76l-.12-.23h0Z"/>
    <path class="st0" d="M391.25,437.62c1.1,1.36,2.34,2.19,3.58,2.66.43-1.39.58-3.58.58-4.99s-.06-2.22-.09-3.03c-1.59.55-3.26,1.62-4.79,3.26-2.66,2.83-3.81,4.76-3.81,5.83,0,1.18.14,1.96.32,2.57l-.14.26-3.38.81-.26-.14c-.69-1.76-.92-3.67-.95-5.51-.06-3.03.23-5.77.61-7.74.29-1.5.55-2.83.55-4.82l.23-.2,3.67.64.14.2c-.06,1.53-.29,2.94-.52,3.84-.52,1.88-.63,2.89-.69,3.87,2.22-3.49,5.25-5.8,8.75-6.73-.14-1.18-.35-2.51-.58-3.7l.17-.26,3.87-.29.29.14c.23,1.21.4,2.45.58,3.7,3.9.29,7.82,2.74,7.82,8.2,0,4.62-3.15,8.6-9.7,8.6-1.36,1.73-2.77,2.97-4.62,4.01-.14.09-.26.14-.38.14s-.26-.09-.49-.23l-3.23-2.17c1.85-.81,3.23-1.85,4.19-2.92-.98-.52-1.88-1.27-2.83-2.17-.23-.23-.23-.43-.12-.72l1.24-3.12h0ZM399.74,434.47c0,1.91-.14,4.24-.58,6.26,2.17-.52,3.75-2.25,3.75-4.71,0-1.93-.98-3.87-3.26-4.3.06.92.09,1.91.09,2.74h0Z"/>
    <path class="st0" d="M409.21,436.23l-1.1-3.78.14-.26c1.99-.46,4.16-1.15,5.95-1.65,1.7-.46,2.89-.81,3.93-.81,3.7,0,6.09,2.69,6.09,8.11,0,6.96-3.7,9.96-9.76,11.49-.26,0-.35-.03-.49-.23l-2.74-3.29c5.77-1.21,8.26-3.46,8.26-7.33,0-3.26-.61-4.42-1.82-4.42-.63,0-1.67.29-2.94.72-1.53.46-3.38,1.04-5.25,1.56l-.26-.12h-.01ZM411.95,426.24l1.07-3.61.26-.09c2.71.75,5.37,1.18,8.66,1.39l.17.2-.66,3.96-.23.14c-3.12-.4-6.09-.9-9.15-1.76l-.12-.23h0Z"/>
    <path class="st0" d="M429.53,424.48l3.93.55.17.26c-.06,1.7-.38,3.52-1.13,6.52-.66,2.6-1.07,5.86-1.07,8.14,0,.58.03,1.16.17,1.79.14.58.32.64.87.09.58-.58,1.01-1.15,1.44-1.82l.87.46c-1.13,3.2-1.36,4.39-1.5,6.35-.06,1.27-.84,1.91-1.91,1.93-.92,0-1.76-.61-2.28-1.27-.92-1.27-1.65-3.55-1.65-6.84,0-2.8.32-6.87,1.04-10.13.46-2.14.81-4.13.84-5.89l.2-.14h.01ZM449.77,447.12c-1.01-1.18-2.02-2.17-2.92-2.83-.52,2.71-2.51,3.84-5.57,3.84s-5.77-1.3-5.77-4.5,2.89-4.59,5.51-4.59c.84-.03,1.13.03,1.82.12-.09-1.82-.14-3.75-.2-5.89-1.99.14-4.1.2-6.06.23l-.2-.23-.09-3.52.2-.17c2.11,0,4.1-.06,6.06-.17-.06-1.44-.06-3.03-.06-4.65l.23-.26h3.81l.23.23c0,1.47-.03,2.92-.03,4.3,1.18-.14,2.4-.32,3.52-.49l.29.14.52,3.49-.17.23c-1.18.2-2.6.4-4.13.55.03,2.6.14,5.05.29,7.22,2.28.95,3.9,2.19,5.31,3.58l-.03.32-2.25,3-.32.06h.01ZM440.93,442.32c-1.16,0-1.76.46-1.76,1.07,0,.49.43.98,1.82.98,1.56,0,1.88-.55,1.79-1.79-.52-.17-.95-.29-1.85-.26ZM446.91,423.53l1.59-.75.29.03c.84,1.1,1.53,2.17,2.14,3.46l-.09.29-1.62.78-.29-.09c-.61-1.33-1.18-2.28-2.11-3.49l.09-.23h0ZM449.97,422.52l1.59-.75.29.03c.84,1.1,1.47,2.05,2.08,3.38l-.09.26-1.62.78-.29-.06c-.61-1.33-1.13-2.19-2.05-3.38l.09-.26h0Z"/>
    <path class="st0" d="M457.13,423.5l3.9.26.2.23c-.17,1.33-.29,1.99-.46,2.83-.2.84-.43,1.47-.75,2.54.98-1.47,2.42-2.22,4.04-2.22s2.92.55,4.19,2.28c1.24,1.73,1.7,4.1,1.7,7.3,0,5.98-2.19,10.08-9.01,12.39-.23.06-.4.12-.55.12-.2,0-.35-.09-.55-.26l-2.97-2.92c6.78-1.67,8.37-4.45,8.37-9.67,0-1.79-.14-3.46-.55-4.39-.35-.81-.81-1.15-1.73-1.15-1.1,0-2.48,1.47-3.03,2.92-.46,1.15-.61,1.99-.61,3.52,0,1.33.38,2.6.75,3.58l-.14.29-3.64.87-.29-.12c-.72-1.39-1.16-3.29-1.16-5.02,0-2.22.52-4.56,1.1-7.1.4-1.85.69-3.44.95-6.06l.23-.2v-.02h0Z"/>
  </g>
  <path class="st0" d="M163.01,396.3c3.9,0,6.82,1,8.78,2.99s2.94,5.08,2.94,9.25v27.1c0,8.19-3.9,12.29-11.71,12.29s-11.58-4.1-11.58-12.29v-27.1c0-8.16,3.86-12.24,11.58-12.24h-.01ZM164.69,438.07v-31.89c0-1.33-.54-1.99-1.61-1.99s-1.61.66-1.61,1.99v31.89c0,1.33.54,1.99,1.61,1.99s1.61-.66,1.61-1.99Z"/>
  <path class="st0" d="M214.19,396.3c3.9,0,6.82,1,8.78,2.99s2.94,5.08,2.94,9.25v27.1c0,8.19-3.9,12.29-11.71,12.29s-11.58-4.1-11.58-12.29v-27.1c0-8.16,3.86-12.24,11.58-12.24h-.01ZM215.87,438.07v-31.89c0-1.33-.54-1.99-1.61-1.99s-1.61.66-1.61,1.99v31.89c0,1.33.54,1.99,1.61,1.99s1.61-.66,1.61-1.99Z"/>
  <path class="st0" d="M148.88,417.76v-11.58c0-3.25-.94-5.71-2.82-7.38s-4.63-2.5-8.24-2.5c-3.98,0-6.95.99-8.9,2.97s-2.92,5.07-2.92,9.26v26.68c0,4.19.97,7.28,2.92,9.26s4.91,2.97,8.9,2.97c3.62,0,6.36-.83,8.24-2.5s2.82-4.13,2.82-7.38v-17.44h-11.44v6.47h1.61v10.98c0,1.33-.54,1.99-1.62,1.99s-1.55-.66-1.55-1.99v-31.39c0-1.33.52-1.99,1.55-1.99s1.62.66,1.62,1.99v11.58h9.83Z"/>
  <path class="st0" d="M200.06,417.76v-11.58c0-3.25-.94-5.71-2.82-7.38s-4.63-2.5-8.24-2.5c-3.98,0-6.95.99-8.9,2.97s-2.92,5.07-2.92,9.26v26.68c0,4.19.97,7.28,2.92,9.26s4.91,2.97,8.9,2.97c3.62,0,6.36-.83,8.24-2.5s2.82-4.13,2.82-7.38v-17.44h-11.44v6.47h1.61v10.98c0,1.33-.54,1.99-1.62,1.99s-1.55-.66-1.55-1.99v-31.39c0-1.33.52-1.99,1.55-1.99s1.62.66,1.62,1.99v11.58h9.83Z"/>
</svg>